<svg width="270" height="270" viewBox="0 0 270 270" fill="none" xmlns="http://www.w3.org/2000/svg">
<g clip-path="url(#clip0_127_120)">
<path d="M135 0C60.75 0 0 60.75 0 135C0 209.25 60.75 270 135 270C209.25 270 270 209.25 270 135C270 60.75 209.25 0 135 0ZM182.25 81C193.05 81 202.5 90.45 202.5 101.25C202.5 112.05 193.05 121.5 182.25 121.5C171.45 121.5 162 112.05 162 101.25C162 90.45 171.45 81 182.25 81ZM87.75 81C98.55 81 108 90.45 108 101.25C108 112.05 98.55 121.5 87.75 121.5C76.95 121.5 67.5 112.05 67.5 101.25C67.5 90.45 76.95 81 87.75 81ZM135 216C99.9 216 70.2 193.05 59.4 162H210.6C199.8 193.05 170.1 216 135 216Z" fill="#3ADC30"/>
</g>
<defs>
<clipPath id="clip0_127_120">
<rect width="270" height="270" fill="white"/>
</clipPath>
</defs>
</svg>
