<svg width="75" height="75" viewBox="0 0 75 75" fill="none" xmlns="http://www.w3.org/2000/svg">
<g id="3069198-cap-education-hat-school_112714 1" clip-path="url(#clip0_101_110)">
<g id="Education">
<path id="Vector" d="M38.2813 53.125C24.9062 53.125 14.0625 47.1156 14.0625 37.5V21.875H62.5V37.5C62.5 45.5797 51.6563 53.125 38.2813 53.125Z" fill="white"/>
<path id="Vector_2" d="M72.1423 15.611L42.6563 1.19386C41.0507 0.40944 39.2872 0.00170898 37.5001 0.00170898C35.713 0.00170898 33.9495 0.40944 32.3438 1.19386L2.85791 15.611C1.98105 16.0394 1.2457 16.7106 0.739325 17.5448C0.232953 18.3791 -0.0231198 19.3412 0.00156994 20.3168C0.0262597 21.2923 0.330673 22.2403 0.878595 23.0478C1.42652 23.8554 2.19488 24.4885 3.09228 24.872L7.03135 26.5626L32.8798 37.6236C34.34 38.2483 35.9118 38.5705 37.5001 38.5705C39.0884 38.5705 40.6602 38.2483 42.1204 37.6236L67.9688 26.5626L71.9079 24.8782C72.807 24.4956 73.5771 23.8624 74.1264 23.0542C74.6756 22.246 74.9808 21.2969 75.0055 20.32C75.0302 19.3432 74.7734 18.3798 74.2657 17.5449C73.758 16.7099 73.0209 16.0386 72.1423 15.611Z" fill="white"/>
<path id="Vector_3" d="M62.5 59.375C62.0856 59.375 61.6882 59.2104 61.3952 58.9174C61.1021 58.6243 60.9375 58.2269 60.9375 57.8125V30.2516L38.9344 18.9688C38.5656 18.7794 38.2871 18.4512 38.1602 18.0565C38.0333 17.6618 38.0684 17.2329 38.2578 16.8641C38.4472 16.4953 38.7753 16.2168 39.17 16.0899C39.5648 15.963 39.9937 15.9981 40.3625 16.1875L64.0625 28.3422V57.8125C64.0625 58.2269 63.8979 58.6243 63.6049 58.9174C63.3118 59.2104 62.9144 59.375 62.5 59.375Z" fill="white"/>
<path id="Vector_4" d="M38.2812 21.875C42.1645 21.875 45.3125 19.7763 45.3125 17.1875C45.3125 14.5987 42.1645 12.5 38.2812 12.5C34.398 12.5 31.25 14.5987 31.25 17.1875C31.25 19.7763 34.398 21.875 38.2812 21.875Z" fill="white"/>
<path id="Vector_5" d="M62.5 67.1875C65.9518 67.1875 68.75 64.3893 68.75 60.9375C68.75 57.4857 65.9518 54.6875 62.5 54.6875C59.0482 54.6875 56.25 57.4857 56.25 60.9375C56.25 64.3893 59.0482 67.1875 62.5 67.1875Z" fill="#3ADC30"/>
</g>
</g>
<defs>
<clipPath id="clip0_101_110">
<rect width="75" height="75" fill="white"/>
</clipPath>
</defs>
</svg>
