<svg width="76" height="75" viewBox="0 0 76 75" fill="none" xmlns="http://www.w3.org/2000/svg">
<g id="self_protection_lunch_food_healthcare_medical_covid_icon_140744 1">
<g id="Group">
<path id="Vector" d="M38 10.7893C44.5674 10.7848 50.9052 13.2054 55.7974 17.5867L57.3455 15.857C52.0252 11.0986 45.1378 8.4679 38 8.4679C30.8622 8.4679 23.9748 11.0986 18.6545 15.857L20.2026 17.5867C25.0949 13.2053 31.4326 10.7847 38 10.7893Z" fill="white"/>
<path id="Vector_2" d="M38 64.1821C34.2126 64.1806 30.4688 63.3739 27.0169 61.8156C23.565 60.2572 20.4838 57.9827 17.9777 55.1431L16.2366 56.6793C18.9598 59.7668 22.3088 62.2396 26.0611 63.9334C29.8134 65.6272 33.8831 66.5032 38 66.5032C42.1169 66.5032 46.1867 65.6272 49.939 63.9334C53.6913 62.2396 57.0403 59.7668 59.7634 56.6793L58.0223 55.1431C55.5162 57.9827 52.435 60.2571 48.9831 61.8155C45.5312 63.3739 41.7874 64.1806 38 64.1821Z" fill="white"/>
<path id="Vector_3" d="M57.4592 34.1956C57.641 35.2829 57.7323 36.3833 57.7322 37.4857C57.7338 39.492 57.4285 41.4867 56.8267 43.4005C56.4019 42.8677 55.8663 42.4337 55.2571 42.1285C53.7018 41.3425 52.0565 40.7488 50.3576 40.3608C52.4674 38.4833 53.8207 35.9011 54.1639 33.0978C54.5071 30.2944 53.8168 27.4621 52.2221 25.131C50.6275 22.8 48.2379 21.1301 45.5008 20.4339C42.7636 19.7378 39.8666 20.0632 37.352 21.3491C36.7045 20.7886 35.929 20.3959 35.0938 20.2058C34.2587 20.0157 33.3896 20.034 32.5632 20.2591C31.7369 20.4841 30.9785 20.9091 30.3552 21.4965C29.7318 22.0838 29.2625 22.8155 28.9887 23.627C28.2408 23.5041 27.4751 23.5453 26.7447 23.7476C26.0143 23.9499 25.3365 24.3085 24.7584 24.7987C24.1803 25.2888 23.7157 25.8988 23.3966 26.5863C23.0776 27.2738 22.9118 28.0224 22.9107 28.7803C22.91 29.4678 23.0458 30.1486 23.3102 30.7833C23.2421 30.8193 23.1725 30.8558 23.102 30.8921C22.4509 31.2307 21.7129 31.6145 21.189 32.3344C20.669 33.0489 20.531 33.8677 20.4091 34.5903C20.3652 34.9 20.2998 35.2064 20.2135 35.5071C20.111 35.7862 19.9889 36.0577 19.8482 36.3196C19.5156 36.9811 19.1384 37.731 19.1384 38.6464C19.1384 39.5618 19.5156 40.3116 19.8482 40.9732C19.9889 41.2351 20.1109 41.5066 20.2134 41.7857C20.2997 42.0864 20.365 42.3927 20.409 42.7024C20.5308 43.4251 20.669 44.2441 21.189 44.9587C21.7129 45.6784 22.4512 46.0622 23.102 46.4008C23.38 46.536 23.6481 46.6906 23.9044 46.8634C24.1434 47.0512 24.3689 47.2555 24.5793 47.4749C25.104 47.9938 25.6989 48.5817 26.5567 48.8602C27.3844 49.1291 28.2 49.0084 28.9196 48.902C29.2354 48.8467 29.5546 48.8135 29.875 48.8027C30.1954 48.8134 30.5147 48.8465 30.8304 48.9017C30.898 48.9116 30.9664 48.9218 31.0356 48.9316C30.8191 49.2837 30.6614 49.6687 30.5687 50.0715C30.4605 50.4987 30.4497 50.9448 30.5371 51.3768C30.6246 51.8087 30.808 52.2155 31.0739 52.567C32.1593 53.9729 34.2458 54.3465 36.0416 53.452C38.0905 52.4208 40.3525 51.884 42.6463 51.8845C44.94 51.885 47.2018 52.4228 49.2502 53.4549C49.3162 53.4878 49.3826 53.519 49.4493 53.5484C46.1108 55.9393 42.1064 57.2227 38 57.2178C27.1198 57.2178 18.2679 48.3661 18.2679 37.4857C18.2679 26.6053 27.1198 17.7535 38 17.7535C42.3244 17.7396 46.5313 19.1598 49.9625 21.7918C53.3231 24.364 55.7749 27.9416 56.9612 32.0039L59.1916 31.3603C57.8663 26.8203 55.1266 22.8218 51.3713 19.9467C47.5361 17.0045 42.8337 15.4168 38 15.4321C25.8396 15.4321 15.9464 25.3253 15.9464 37.4857C15.9464 49.6461 25.8396 59.5393 38 59.5393C43.6722 59.5433 49.1263 57.3541 53.2216 53.4295C53.6039 53.2103 53.9395 52.9182 54.2095 52.5699C54.3247 52.4219 54.4246 52.2626 54.5077 52.0944C58.0846 48.0693 60.0582 42.8705 60.0536 37.4857C60.0538 36.2546 59.9519 35.0257 59.7489 33.8114L57.4592 34.1956ZM55.3237 45.4737C55.3513 45.5683 55.3586 45.6677 55.3452 45.7653C55.3318 45.863 55.2979 45.9567 55.2458 46.0403C54.8494 46.5538 53.933 46.6545 53.1598 46.2703C49.5351 44.4466 45.378 43.9778 41.4382 44.9485L41.4166 44.9497V44.9539C40.1891 45.2575 38.9998 45.6986 37.8713 46.269C37.0967 46.6549 36.1794 46.5545 35.7803 46.0375C35.7289 45.9541 35.6956 45.8607 35.6826 45.7635C35.6695 45.6663 35.6771 45.5675 35.7047 45.4734C35.7918 45.0852 36.1304 44.5469 36.8187 44.1995C39.5162 42.8415 42.4943 42.1342 45.5144 42.1342C48.5345 42.1342 51.5126 42.8415 54.2101 44.1995C54.8978 44.547 55.2366 45.0855 55.3237 45.4737ZM51.9286 31.6821C51.9319 33.3622 51.4779 35.0116 50.6154 36.4534C49.753 37.8953 48.5144 39.0753 47.0325 39.867C44.7164 39.7048 42.3892 39.9147 40.1395 40.4887C40.4325 39.9176 40.5938 39.2881 40.6116 38.6464C40.6116 37.731 40.2344 36.9812 39.9018 36.3196C39.7611 36.0577 39.6391 35.7862 39.5367 35.5071C39.4868 35.3464 39.4467 35.1829 39.4165 35.0174C40.1863 35.761 41.1895 36.2157 42.2561 36.3044C43.3227 36.3931 44.3872 36.1104 45.2693 35.5041C46.1513 34.8979 46.7967 34.0054 47.0961 32.9778C47.3955 31.9502 47.3305 30.8507 46.9121 29.8656C46.4937 28.8805 45.7477 28.0702 44.8003 27.5721C43.853 27.074 42.7626 26.9187 41.7139 27.1325C40.6651 27.3462 39.7225 27.9159 39.0457 28.7451C38.3689 29.5742 37.9994 30.6118 38 31.6821C38 31.7 38 31.7178 38 31.7357C37.5825 31.4044 37.1289 31.1215 36.6478 30.8922C36.3697 30.7571 36.1015 30.6025 35.8451 30.4297C35.7706 30.3753 35.6945 30.3128 35.6171 30.2443C36.2978 30.0131 36.9235 29.6438 37.455 29.1596C37.9865 28.6755 38.4122 28.0868 38.7057 27.4304C38.9991 26.7741 39.1539 26.0643 39.1604 25.3453C39.1668 24.6264 39.0248 23.9139 38.7432 23.2524C39.9645 22.6845 41.2959 22.3922 42.6429 22.3964C45.1047 22.3992 47.465 23.3784 49.2058 25.1192C50.9466 26.86 51.9258 29.2202 51.9286 31.6821ZM40.3214 31.6821C40.3214 31.223 40.4576 30.7742 40.7127 30.3924C40.9678 30.0106 41.3303 29.7131 41.7545 29.5374C42.1787 29.3617 42.6454 29.3157 43.0958 29.4053C43.5461 29.4949 43.9597 29.716 44.2844 30.0406C44.609 30.3653 44.8301 30.7789 44.9197 31.2292C45.0093 31.6795 44.9633 32.1463 44.7876 32.5705C44.6119 32.9947 44.3143 33.3572 43.9326 33.6123C43.5508 33.8674 43.102 34.0035 42.6429 34.0035C42.0274 34.0028 41.4374 33.758 41.0022 33.3228C40.567 32.8876 40.3222 32.2976 40.3214 31.6821ZM33.9375 22.3964C34.5114 22.3964 35.0725 22.5666 35.5497 22.8854C36.0269 23.2043 36.3988 23.6575 36.6184 24.1877C36.838 24.718 36.8955 25.3014 36.7835 25.8643C36.6716 26.4272 36.3952 26.9442 35.9894 27.3501C35.5836 27.7559 35.0665 28.0322 34.5036 28.1442C33.9407 28.2562 33.3573 28.1987 32.827 27.9791C32.2968 27.7595 31.8436 27.3875 31.5248 26.9103C31.2059 26.4331 31.0357 25.8721 31.0357 25.2982C31.0366 24.5289 31.3426 23.7913 31.8866 23.2473C32.4306 22.7033 33.1682 22.3973 33.9375 22.3964ZM28.1339 25.8785C28.3425 25.8783 28.5504 25.9004 28.7542 25.9444C28.8448 26.6659 29.0849 27.3605 29.4592 27.984C29.8335 28.6074 30.3337 29.1458 30.9279 29.565C30.7819 30.085 30.4936 30.5539 30.0955 30.9189C29.6975 31.284 29.2054 31.5307 28.6748 31.6313C28.1441 31.7319 27.5959 31.6824 27.0918 31.4884C26.5878 31.2944 26.1479 30.9635 25.8216 30.5331C25.4954 30.1026 25.2957 29.5897 25.2452 29.0519C25.1946 28.5142 25.2952 27.973 25.5355 27.4893C25.7758 27.0056 26.1463 26.5985 26.6054 26.314C27.0644 26.0294 27.5938 25.8786 28.1339 25.8785ZM29.875 46.4812C29.4408 46.4902 29.0079 46.5317 28.5799 46.6053C28.0675 46.681 27.5838 46.7527 27.2741 46.652C26.9404 46.5435 26.5863 46.1939 26.2118 45.8237C25.92 45.5209 25.6055 45.241 25.271 44.9862C24.9221 44.7436 24.5553 44.5279 24.1736 44.341C23.7084 44.0991 23.269 43.8706 23.0666 43.5925C22.8678 43.3193 22.7857 42.8319 22.6986 42.3157C22.6376 41.8935 22.5451 41.4764 22.4219 41.0679C22.285 40.6763 22.1182 40.2957 21.9228 39.9297C21.6844 39.4574 21.4598 39.011 21.4598 38.6464C21.4598 38.2818 21.6844 37.8352 21.9222 37.3624C22.1177 36.9964 22.2845 36.6158 22.4213 36.2241C22.5446 35.8157 22.6371 35.3986 22.6982 34.9764C22.7852 34.4604 22.8672 33.9734 23.066 33.6996C23.2691 33.4214 23.7078 33.1929 24.173 32.9511C24.3371 32.8658 24.5037 32.7791 24.6699 32.6858C25.2846 33.2317 26.0196 33.6247 26.8149 33.8328C27.6103 34.0408 28.4435 34.058 29.2468 33.8831C30.0501 33.7081 30.8006 33.3458 31.4374 32.8258C32.0741 32.3058 32.5791 31.6428 32.911 30.8907C33.1308 31.0712 33.3403 31.264 33.5384 31.4683C33.8302 31.771 34.1447 32.051 34.4791 32.3059C34.8281 32.5484 35.195 32.7641 35.5767 32.9511C36.0419 33.1929 36.4814 33.4214 36.6838 33.6996C36.8825 33.9728 36.9647 34.4601 37.0517 34.9764C37.1128 35.3986 37.2052 35.8157 37.3284 36.2241C37.4653 36.6158 37.6322 36.9963 37.8275 37.3624C38.0656 37.8354 38.2902 38.2818 38.2902 38.6464C38.2902 39.011 38.0656 39.4576 37.8278 39.9304C37.6324 40.2964 37.4655 40.6769 37.3287 41.0685C37.2883 41.1927 37.2519 41.3214 37.2175 41.4629C36.7293 41.666 36.2475 41.8876 35.7723 42.1275C34.5758 42.7311 33.7041 43.7913 33.44 44.9634C33.3625 45.2999 33.3387 45.6466 33.3693 45.9905C33.0571 46.2952 32.76 46.56 32.4765 46.652C32.1664 46.7525 31.6827 46.681 31.1707 46.6053C30.7425 46.5316 30.3094 46.4902 29.875 46.4812ZM50.2918 51.3799C47.9201 50.1857 45.3017 49.5634 42.6464 49.5629C39.991 49.5624 37.3723 50.1836 35.0001 51.3768C34.2257 51.7628 33.3083 51.6625 32.9093 51.1447C32.8578 51.0612 32.8245 50.9678 32.8114 50.8706C32.7984 50.7734 32.8059 50.6745 32.8335 50.5804C32.9206 50.1923 33.2592 49.654 33.9475 49.3067C34.4616 49.0468 34.9913 48.8083 35.529 48.5949C36.0812 48.7823 36.6654 48.8566 37.2469 48.8133C37.8284 48.77 38.3952 48.61 38.9135 48.3429C39.8299 47.8796 40.7929 47.5148 41.7863 47.2547C42.4367 47.2259 43.0881 47.2299 43.7381 47.2666C46.3858 47.4129 48.9742 48.1077 51.3392 49.3068C52.0268 49.654 52.3652 50.1919 52.4525 50.5807C52.4757 50.6796 52.483 50.7815 52.4741 50.8826C52.2778 51.0947 52.0769 51.3023 51.8716 51.5055C51.6132 51.5914 51.3403 51.6245 51.069 51.6029C50.7976 51.5813 50.5333 51.5055 50.2918 51.3799Z" fill="white"/>
<path id="Vector_4" d="M70.5 6.14642V17.7536H67.0179V6.14642H64.6965V17.7536H61.2143V6.14642H58.8929V25.2982C58.8942 26.2566 59.2337 27.1838 59.8517 27.9164C60.4696 28.649 61.3264 29.1399 62.2709 29.3027L61.2219 63.9178C61.2169 64.0048 61.2143 64.0933 61.2143 64.1818C61.2143 65.4132 61.7035 66.5941 62.5742 67.4648C63.4449 68.3355 64.6258 68.8247 65.8572 68.8247C67.0885 68.8247 68.2695 68.3355 69.1402 67.4648C70.0109 66.5941 70.5 65.4132 70.5 64.1818C70.5 64.0933 70.4974 64.0051 70.4925 63.9178L70.2534 56.022L67.9331 56.0923L68.1728 64.0045C68.1728 64.0162 68.1737 64.0278 68.1744 64.0394C68.1771 64.0865 68.1787 64.1343 68.1787 64.1821C68.1787 64.7978 67.9342 65.3883 67.4988 65.8236C67.0635 66.259 66.473 66.5036 65.8573 66.5036C65.2416 66.5036 64.6512 66.259 64.2158 65.8236C63.7805 65.3883 63.5359 64.7978 63.5359 64.1821C63.5359 64.1343 63.5375 64.0865 63.5402 64.0394C63.541 64.0278 63.5415 64.0162 63.5418 64.0045L64.5916 29.3607H67.1228L67.8627 53.7708L70.183 53.7006L69.4431 29.303C70.3877 29.1403 71.2445 28.6493 71.8626 27.9167C72.4806 27.184 72.8202 26.2567 72.8215 25.2982V6.14642H70.5ZM70.5 25.2982C70.4995 25.7598 70.3159 26.2024 69.9895 26.5288C69.6631 26.8552 69.2206 27.0388 68.759 27.0393H62.9554C62.4938 27.0388 62.0512 26.8552 61.7248 26.5288C61.3984 26.2024 61.2148 25.7598 61.2143 25.2982V20.075H70.5V25.2982Z" fill="white"/>
<path id="Vector_5" d="M13.6903 28.0175C15.9392 26.0863 17.4388 22.2574 17.4388 17.7536C17.4388 11.2449 14.3069 6.14642 10.3087 6.14642C6.31049 6.14642 3.17859 11.2449 3.17859 17.7536C3.17859 22.0385 4.53604 25.7123 6.60444 27.7224L6.34473 36.2899L8.66499 36.3601L8.88393 29.1384C9.70004 29.3995 10.5722 29.4313 11.4052 29.2301L12.4589 64.0044C12.4589 64.016 12.4598 64.0276 12.4605 64.0392C12.4633 64.0864 12.4649 64.1341 12.4649 64.182C12.4649 64.7977 12.2203 65.3881 11.785 65.8235C11.3496 66.2588 10.7591 66.5034 10.1435 66.5034C9.52777 66.5034 8.93731 66.2588 8.50196 65.8235C8.0666 65.3881 7.82203 64.7977 7.82203 64.182C7.82203 64.1341 7.82362 64.0864 7.82638 64.0392C7.82638 64.0276 7.82768 64.016 7.82797 64.0044L8.59521 38.6814L6.27494 38.6112L5.50756 63.9181C5.50263 64.0051 5.50002 64.0936 5.50002 64.1821C5.50002 65.4135 5.98917 66.5944 6.85988 67.4651C7.73058 68.3358 8.91151 68.825 10.1429 68.825C11.3742 68.825 12.5552 68.3358 13.4259 67.4651C14.2966 66.5944 14.7857 65.4135 14.7857 64.1821C14.7857 64.0936 14.7831 64.0054 14.7782 63.9181L13.6903 28.0175ZM5.50002 17.7536C5.50002 12.1991 7.98641 8.46785 10.3087 8.46785C12.631 8.46785 15.1174 12.1991 15.1174 17.7536C15.1174 23.308 12.6309 27.0393 10.3087 27.0393C7.98656 27.0393 5.50002 23.308 5.50002 17.7536Z" fill="white"/>
<path id="Vector_6" d="M25.2918 35.9581L24.1311 39.4402L26.3336 40.1743L27.4942 36.6922L25.2918 35.9581Z" fill="white"/>
<path id="Vector_7" d="M31.8294 41.0274L28.3473 42.1881L29.0814 44.3904L32.5635 43.2297L31.8294 41.0274Z" fill="white"/>
<path id="Vector_8" d="M31.6796 35.3592L30.3919 37.2908L33.874 39.6122L35.1617 37.6806L31.6796 35.3592Z" fill="white"/>
</g>
</g>
</svg>
