<svg width="75" height="76" viewBox="0 0 75 76" fill="none" xmlns="http://www.w3.org/2000/svg">
<g id="health_healthcare_heart_love_medic_medical_rate_icon_127269 1">
<g id="_x30_1">
<g id="Group">
<path id="Vector" d="M67.9688 35.9062C66.6744 35.9062 65.625 36.9545 65.625 38.25C65.625 53.759 53.0079 66.375 37.5 66.375C21.9921 66.375 9.375 53.759 9.375 38.25C9.375 22.741 21.9921 10.125 37.5 10.125C47.2126 10.125 56.1092 15.0345 61.2991 23.2582C61.9926 24.3523 63.4403 24.6796 64.5321 23.9884C65.6273 23.2971 65.9546 21.8506 65.2634 20.7543C59.2094 11.1641 48.8308 5.4375 37.5 5.4375C19.4069 5.4375 4.6875 20.1569 4.6875 38.25C4.6875 56.3431 19.4069 71.0625 37.5 71.0625C55.5931 71.0625 70.3125 56.3431 70.3125 38.25C70.3125 36.9545 69.2631 35.9062 67.9688 35.9062Z" fill="white"/>
<path id="Vector_2" d="M11.7188 40.5938C11.7188 41.8892 12.7682 42.9375 14.0625 42.9375H16.6865C22.4082 53.4984 35.6488 60.996 36.3613 61.3922C36.7161 61.5891 37.1075 61.6875 37.5 61.6875C37.8925 61.6875 38.2839 61.5891 38.6387 61.3922C39.3512 60.996 52.5918 53.4984 58.3135 42.9375H60.9375C62.2318 42.9375 63.2812 41.8892 63.2812 40.5938C63.2812 39.2983 62.2318 38.25 60.9375 38.25H60.2333C60.6573 36.7261 60.9375 35.1671 60.9375 33.5625C60.9375 25.808 54.641 19.5 46.9025 19.5C43.4063 19.5 40.0486 20.8046 37.5 23.0774C34.9514 20.8046 31.5937 19.5 28.0975 19.5C20.359 19.5 14.0625 25.808 14.0625 33.5625C14.0625 35.1671 14.3427 36.7261 14.7667 38.25H14.0625C12.7682 38.25 11.7188 39.2983 11.7188 40.5938ZM37.5 56.6178C34.5639 54.813 26.6666 49.5705 22.1131 42.9375H28.125C28.7464 42.9375 29.3427 42.6903 29.7821 42.2509L31.9565 40.0765L35.3233 48.4948C35.6163 49.2272 36.2572 49.7628 37.0285 49.9207C37.1853 49.9527 37.3432 49.9688 37.5 49.9688C38.1157 49.9688 38.7131 49.7261 39.1571 49.2821L45.5017 42.9375H52.8869C48.3334 49.5705 40.4361 54.813 37.5 56.6178ZM18.75 33.5625C18.75 28.3921 22.9431 24.1875 28.0975 24.1875C31.1108 24.1875 33.8516 25.5516 35.6186 27.9297C36.5021 29.1199 38.4979 29.1199 39.3814 27.9297C41.1484 25.5516 43.8892 24.1875 46.9025 24.1875C52.0569 24.1875 56.25 28.3921 56.25 33.5625C56.25 35.1561 55.9011 36.7216 55.3431 38.25H44.5312C43.9098 38.25 43.3136 38.4972 42.8741 38.9366L38.356 43.4548L34.9892 35.0365C34.6962 34.3041 34.0553 33.7685 33.284 33.6106C32.5138 33.4572 31.7139 33.693 31.1554 34.2491L27.1545 38.25H19.6569C19.0989 36.7216 18.75 35.1561 18.75 33.5625Z" fill="white"/>
</g>
</g>
</g>
</svg>
